<?xml version="1.0" encoding="UTF-8"?>
<!DOCTYPE svg PUBLIC "-//W3C//DTD SVG 1.1//EN" "http://www.w3.org/Graphics/SVG/1.1/DTD/svg11.dtd">
<!-- Creator: CorelDRAW 2020 (64-Bit) -->
<svg xmlns="http://www.w3.org/2000/svg" xml:space="preserve" width="16.1714mm" height="16.256mm" version="1.1" style="shape-rendering:geometricPrecision; text-rendering:geometricPrecision; image-rendering:optimizeQuality; fill-rule:evenodd; clip-rule:evenodd"
viewBox="0 0 848.56 853"
 xmlns:xlink="http://www.w3.org/1999/xlink"
 xmlns:xodm="http://www.corel.com/coreldraw/odm/2003">
 <defs>
  <style type="text/css">
   <![CDATA[
    .fil1 {fill:black}
    .fil0 {fill:black;fill-opacity:0.749020}
   ]]>
  </style>
 </defs>
 <g id="Capa_x0020_1">
  <metadata id="CorelCorpID_0Corel-Layer"/>
  <path class="fil0" d="M57.75 119.95l84.43 0c31.77,0 57.75,25.98 57.75,57.75l0 84.41c0,31.77 -25.98,57.76 -57.75,57.76l-84.43 0c-31.77,0 -57.75,-25.98 -57.75,-57.76l0 -84.41c0,-31.77 25.98,-57.75 57.75,-57.75z"/>
  <rect class="fil1" transform="matrix(0.67494 0.568366 -0.546909 0.64946 416.085 21.8692)" width="226.58" height="235.46" rx="65.45" ry="65.45"/>
  <rect class="fil1" x="648.64" y="-0" width="199.93" height="199.92" rx="57.76" ry="55.58"/>
  <path class="fil0" d="M57.75 386.52l84.43 0c31.77,0 57.75,25.98 57.75,57.75l0 84.41c0,31.77 -25.98,57.76 -57.75,57.76l-84.43 0c-31.77,0 -57.75,-25.98 -57.75,-57.76l0 -84.41c0,-31.77 25.98,-57.75 57.75,-57.75z"/>
  <path class="fil0" d="M328.75 386.52l84.43 0c31.77,0 57.75,25.98 57.75,57.75l0 84.41c0,31.77 -25.98,57.76 -57.75,57.76l-84.43 0c-31.77,0 -57.75,-25.98 -57.75,-57.76l0 -84.41c0,-31.77 25.98,-57.75 57.75,-57.75z"/>
  <rect class="fil1" transform="matrix(0.548215 0.691407 -0.665306 0.527519 702.264 270.872)" width="226.58" height="235.46" rx="65.45" ry="65.45"/>
  <path class="fil0" d="M57.75 653.08l84.43 0c31.77,0 57.75,25.98 57.75,57.75l0 84.41c0,31.77 -25.98,57.76 -57.75,57.76l-84.43 0c-31.77,0 -57.75,-25.98 -57.75,-57.76l0 -84.41c0,-31.77 25.98,-57.75 57.75,-57.75z"/>
  <path class="fil0" d="M328.75 653.08l84.43 0c31.77,0 57.75,25.98 57.75,57.75l0 84.41c0,31.77 -25.98,57.76 -57.75,57.76l-84.43 0c-31.77,0 -57.75,-25.98 -57.75,-57.76l0 -84.41c0,-31.77 25.98,-57.75 57.75,-57.75z"/>
  <path class="fil0" d="M599.76 653.08l84.43 0c31.77,0 57.75,25.98 57.75,57.75l0 84.41c0,31.77 -25.98,57.76 -57.75,57.76l-84.43 0c-31.77,0 -57.75,-25.98 -57.75,-57.76l0 -84.41c0,-31.77 25.98,-57.75 57.75,-57.75z"/>
 </g>
</svg>
