<?xml version="1.0" encoding="UTF-8"?>
<!DOCTYPE svg PUBLIC "-//W3C//DTD SVG 1.1//EN" "http://www.w3.org/Graphics/SVG/1.1/DTD/svg11.dtd">
<!-- Creator: CorelDRAW 2020 (64-Bit) -->
<svg xmlns="http://www.w3.org/2000/svg" xml:space="preserve" width="28.1366mm" height="23.7067mm" version="1.1" style="shape-rendering:geometricPrecision; text-rendering:geometricPrecision; image-rendering:optimizeQuality; fill-rule:evenodd; clip-rule:evenodd"
viewBox="0 0 3075.8 2591.54"
 xmlns:xlink="http://www.w3.org/1999/xlink"
 xmlns:xodm="http://www.corel.com/coreldraw/odm/2003">
 <defs>
  <style type="text/css">
   <![CDATA[
    .fil0 {fill:black}
   ]]>
  </style>
 </defs>
 <g id="Capa_x0020_1">
  <metadata id="CorelCorpID_0Corel-Layer"/>
  <path class="fil0" d="M2788.87 286.92l-1391.29 0 -296.83 -286.92 -813.83 0c-157.81,0 -286.92,129.11 -286.92,286.92l0 2017.69c0,157.82 129.11,286.92 286.92,286.92l407.23 0 0 -87.97c-54.57,-24.69 -92.55,-79.63 -92.55,-143.42 0,-86.9 70.44,-157.34 157.34,-157.34 86.9,0 157.34,70.44 157.34,157.34 0,55.57 -28.8,104.41 -72.3,132.4l0 98.99 1386.58 0 0 -87.97c-54.57,-24.69 -92.55,-79.63 -92.55,-143.42 0,-86.9 70.44,-157.34 157.34,-157.34 86.9,0 157.34,70.44 157.34,157.34 0,55.57 -28.8,104.41 -72.3,132.4l0 98.99 396.25 0c157.81,0 298.03,-129.1 299.15,-286.92l0 -1730.77c1.12,-157.81 -129.14,-286.92 -286.92,-286.92zm-2474.18 1619.71l1073.63 0 0 -138.83c-368.97,-323.14 -727.25,-338.35 -1073.63,-9.26l0 148.09zm1305.02 -314.69l610.86 0 0 157.34 -610.86 0 0 -157.34zm0 -384.11l1175.45 0 0 157.34 -1175.45 0 0 -157.34zm0 -384.1l1175.45 0 0 157.34 -1175.45 0 0 -157.34zm-782.1 -92.55c171.23,0 310.06,138.82 310.06,310.06 0,171.23 -138.82,310.06 -310.06,310.06 -171.23,0 -310.06,-138.82 -310.06,-310.06 0,-171.23 138.82,-310.06 310.06,-310.06z"/>
 </g>
</svg>
