<?xml version="1.0" encoding="UTF-8"?>
<!DOCTYPE svg PUBLIC "-//W3C//DTD SVG 1.1//EN" "http://www.w3.org/Graphics/SVG/1.1/DTD/svg11.dtd">
<!-- Creator: CorelDRAW 2020 (64-Bit) -->
<svg xmlns="http://www.w3.org/2000/svg" xml:space="preserve" width="31.1059mm" height="21.4043mm" version="1.1" style="shape-rendering:geometricPrecision; text-rendering:geometricPrecision; image-rendering:optimizeQuality; fill-rule:evenodd; clip-rule:evenodd"
viewBox="0 0 12697.86 8737.53"
 xmlns:xlink="http://www.w3.org/1999/xlink"
 xmlns:xodm="http://www.corel.com/coreldraw/odm/2003">
 <defs>
  <style type="text/css">
   <![CDATA[
    .str0 {stroke:black;stroke-width:138.26;stroke-miterlimit:22.9256}
    .fil0 {fill:black;fill-rule:nonzero}
   ]]>
  </style>
 </defs>
 <g id="Capa_x0020_1">
  <metadata id="CorelCorpID_0Corel-Layer"/>
  <path class="fil0 str0" d="M12578.34 4087.08c-89.56,-89.6 -1239.05,-1537.66 -1433.16,-1776.51 -208.96,-238.85 -298.57,-194.06 -432.91,-179.12 -134.34,14.9 -1582.4,268.69 -1746.62,283.63 -164.22,29.84 -268.73,89.56 -164.22,238.85 89.56,134.38 1044.99,1477.94 1253.99,1791.41l-3806.76 910.64 -3015.56 -5060.75c-119.4,-179.12 -149.28,-238.85 -417.97,-223.91 -268.73,14.94 -2373.64,194.06 -2522.93,194.06 -149.28,14.94 -313.51,74.62 -164.22,432.91 149.28,358.29 2537.87,5493.7 2597.55,5642.99 59.72,149.28 238.89,388.13 641.96,298.57 417.97,-104.5 1851.13,-477.73 2642.33,-686.74 418.01,746.46 1253.99,2269.14 1418.22,2493.08 208.96,298.57 358.25,238.85 671.76,149.28 253.79,-74.66 3911.26,-1388.38 4075.49,-1463 164.22,-74.66 268.69,-119.44 149.28,-283.63 -89.56,-119.44 -1044.99,-1418.22 -1552.56,-2090.01 343.35,-89.56 1582.4,-417.97 1716.74,-462.75 149.28,-44.82 179.17,-119.44 89.6,-209.01l0 0zm-6911.88 1418.18c-44.78,14.94 -2179.58,522.51 -2284.08,552.35 -119.4,29.88 -119.4,14.94 -119.4,-29.84 -29.88,-44.78 -2537.87,-5239.87 -2582.65,-5299.6 -29.84,-59.72 -29.84,-119.44 0,-119.44 29.88,0 2015.35,-179.12 2075.07,-179.12 74.62,0 59.72,14.9 89.56,59.72 0,0 2791.61,4821.86 2836.43,4896.53 59.68,74.62 29.84,104.5 -14.94,119.4l0 0zm6001.23 1119.65c29.84,59.72 74.66,89.56 -44.78,119.44 -104.5,44.78 -3597.75,1224.11 -3672.41,1253.99 -74.62,29.84 -119.4,44.78 -209.01,-89.6 -89.56,-134.34 -1224.11,-2089.97 -1224.11,-2089.97l3717.2 -970.32c89.56,-29.88 119.4,-44.82 179.12,44.78 59.72,104.5 1224.15,1686.9 1253.99,1731.68zm238.85 -2627.43c-89.56,14.94 -1448.06,358.29 -1448.06,358.29l-1119.65 -1522.68c-29.84,-44.78 -59.68,-89.56 14.94,-104.5 74.66,-14.94 1343.55,-238.85 1403.28,-253.79 59.72,-14.94 104.5,-29.84 179.17,74.62 74.62,89.6 1030.05,1313.71 1074.83,1358.5 44.78,44.78 -14.94,74.66 -104.5,89.6l0 -0.04z"/>
 </g>
</svg>
