<?xml version="1.0" encoding="UTF-8"?>
<!DOCTYPE svg PUBLIC "-//W3C//DTD SVG 1.1//EN" "http://www.w3.org/Graphics/SVG/1.1/DTD/svg11.dtd">
<!-- Creator: CorelDRAW 2020 (64-Bit) -->
<svg xmlns="http://www.w3.org/2000/svg" xml:space="preserve" width="22.5212mm" height="25.4036mm" version="1.1" style="shape-rendering:geometricPrecision; text-rendering:geometricPrecision; image-rendering:optimizeQuality; fill-rule:evenodd; clip-rule:evenodd"
viewBox="0 0 2517.04 2839.19"
 xmlns:xlink="http://www.w3.org/1999/xlink"
 xmlns:xodm="http://www.corel.com/coreldraw/odm/2003">
 <defs>
  <style type="text/css">
   <![CDATA[
    .fil0 {fill:black}
   ]]>
  </style>
 </defs>
 <g id="Capa_x0020_1">
  <metadata id="CorelCorpID_0Corel-Layer"/>
  <path class="fil0" d="M-0 814.21l0 1201.75c0,142.36 88.49,184.86 179.3,237.05 86.08,49.49 182.35,111.23 276.04,149.77 242.52,99.77 481.45,-11.42 481.45,-282.74l0 -1201.75c0,-44.43 -58.14,-28.39 -170.33,-28.39 -44.72,0 -28.42,73.5 -28.39,151.41 0.04,168.15 17.16,1046.5 -15.9,1119.6 -83.65,185 -352.7,-27.28 -453.99,-81.96 -57.32,-30.95 -78.94,-35.65 -78.94,-81.93l0 -1154.43c0,-39.11 13.9,-48.13 40.26,-63.84l1029.02 -589.08 1022.92 585.72c28.64,16.61 46.35,22.7 46.35,67.2l0 1154.43c0,47.82 -24.89,51.44 -60.67,71.82l-778.59 451.55c-288.87,161.42 -189.23,149.56 -350.04,60.33 -246.01,-136.5 -121.91,-113.02 -275.94,-52.33 -73.76,29.07 -82.76,18.32 -86.63,64.78 111.18,29.68 338.12,246.02 492.06,246.02 86.36,0 126.93,-37.3 186.01,-69.48l968.69 -564.25c45.92,-32.59 94.36,-83.74 94.36,-161.12l0 -1249.07c0,-125.47 -141.88,-193.74 -249.28,-252.24l-880.64 -510.36c-164.9,-97.57 -329.08,45.7 -488.67,137.58l-647.1 374.87c-100.53,60.88 -251.36,111.91 -251.36,269.08z"/>
  <path class="fil0" d="M1069.27 1145.4c0,127.15 -4.33,195.45 111.96,275.99 63.43,43.92 145.02,60.43 236.71,75.55 141.6,23.36 474.56,23.5 474.56,159.44 0,189.09 -252.08,160.86 -397.42,160.86 -310.33,0 -227.36,-227.1 -293.35,-227.1 -82.45,0 -101.27,-6.63 -170.33,9.47 0,143.41 25.81,250.23 155.16,327.42 217.13,129.58 705.28,130.85 857.63,-81.12 79.93,-111.22 97.12,-336.94 -60.81,-431.82 -226.03,-135.77 -705.95,-69.63 -705.95,-221.38 0,-211.04 418.6,-160.41 507.26,-100.37 85.47,57.87 58.02,166.62 117.27,166.62 47.77,0 160.86,12.92 160.86,-28.39 0,-259.94 -218.58,-378.51 -454.21,-378.51 -160.97,0 -396.87,8.17 -491.92,161.01 -18.07,29.07 -47.44,86.72 -47.44,132.34z"/>
 </g>
</svg>
