<?xml version="1.0" encoding="UTF-8"?>
<!DOCTYPE svg PUBLIC "-//W3C//DTD SVG 1.1//EN" "http://www.w3.org/Graphics/SVG/1.1/DTD/svg11.dtd">
<!-- Creator: CorelDRAW 2020 (64-Bit) -->
<svg xmlns="http://www.w3.org/2000/svg" xml:space="preserve" width="25.4519mm" height="15.948mm" version="1.1" style="shape-rendering:geometricPrecision; text-rendering:geometricPrecision; image-rendering:optimizeQuality; fill-rule:evenodd; clip-rule:evenodd"
viewBox="0 0 1222.5 766.01"
 xmlns:xlink="http://www.w3.org/1999/xlink"
 xmlns:xodm="http://www.corel.com/coreldraw/odm/2003">
 <defs>
  <style type="text/css">
   <![CDATA[
    .str0 {stroke:black;stroke-width:9.61;stroke-miterlimit:22.9256}
    .fil0 {fill:black}
   ]]>
  </style>
 </defs>
 <g id="Capa_x0020_1">
  <metadata id="CorelCorpID_0Corel-Layer"/>
  <path class="fil0 str0" d="M50.55 761.21l1124.44 0c56.93,0 56.93,-97.6 0,-97.6l-1124.44 0c-58.96,0 -63.03,97.6 0,97.6z"/>
  <path class="fil0 str0" d="M268.12 4.8l695.41 0c67.1,0 122,54.9 122,122l0 467.68 -939.4 0 0 -467.68c0,-67.1 54.9,-122 122,-122zm210.25 457.51c-1.08,0 -2.3,-0.34 -3.66,-1.02 -1.35,-0.68 -2.71,-1.42 -4.06,-2.24l-141.93 -96.78c-3.79,-2.71 -6.71,-5.36 -8.74,-7.93 -2.04,-2.58 -3.05,-5.9 -3.05,-9.97l0 -10.98c0,-4.06 1.01,-7.39 3.05,-9.96 2.03,-2.57 4.95,-5.22 8.74,-7.93l141.93 -96.79c1.35,-0.54 2.71,-1.15 4.06,-1.83 1.36,-0.68 2.58,-1.02 3.66,-1.02 2.17,0 4.07,0.75 5.7,2.24 1.62,1.49 2.44,3.46 2.44,5.9l0 37.41c0,3.79 -1.09,6.84 -3.26,9.15 -2.17,2.31 -4.61,4.27 -7.32,5.9l-93.94 62.63 93.94 62.62c2.71,1.63 5.15,3.53 7.32,5.7 2.17,2.17 3.26,5.28 3.26,9.35l0 37.01c0,2.71 -0.82,4.81 -2.44,6.3 -1.63,1.49 -3.53,2.24 -5.7,2.24zm51.65 38.63c-2.44,0 -4.47,-0.88 -6.1,-2.64 -1.63,-1.76 -2.44,-3.73 -2.44,-5.9 0,-1.35 0.27,-2.71 0.81,-4.07l138.27 -331.84c0.81,-2.17 2.24,-4.27 4.27,-6.3 2.03,-2.04 5.08,-3.05 9.15,-3.05l31.31 0c2.44,0 4.48,0.88 6.1,2.64 1.63,1.76 2.44,3.73 2.44,5.9 0,1.09 -0.27,2.44 -0.81,4.06l-138.67 331.85c-0.82,1.9 -2.24,3.93 -4.27,6.1 -2.04,2.17 -5.22,3.25 -9.56,3.25l-30.5 0zm226.93 -38.63c-2.17,0 -4.07,-0.75 -5.7,-2.24 -1.62,-1.49 -2.44,-3.59 -2.44,-6.3l0 -37.01c0,-4.07 1.09,-7.19 3.26,-9.35 2.17,-2.17 4.61,-4.07 7.32,-5.7l93.94 -62.62 -93.94 -62.63c-2.71,-1.63 -5.15,-3.59 -7.32,-5.9 -2.17,-2.31 -3.26,-5.36 -3.26,-9.15l0 -37.41c0,-2.44 0.82,-4.4 2.44,-5.9 1.63,-1.49 3.53,-2.24 5.7,-2.24 1.35,0 2.71,0.34 4.06,1.02 1.36,0.68 2.58,1.29 3.66,1.83l141.93 96.79c4.07,2.71 7.05,5.36 8.95,7.93 1.9,2.57 2.84,5.9 2.84,9.96l0 10.98c0,4.07 -0.95,7.39 -2.84,9.97 -1.9,2.57 -4.88,5.22 -8.95,7.93l-141.93 96.78c-1.08,0.82 -2.3,1.56 -3.66,2.24 -1.35,0.68 -2.71,1.02 -4.06,1.02z"/>
 </g>
</svg>
