<?xml version="1.0" encoding="UTF-8"?>
<!DOCTYPE svg PUBLIC "-//W3C//DTD SVG 1.1//EN" "http://www.w3.org/Graphics/SVG/1.1/DTD/svg11.dtd">
<!-- Creator: CorelDRAW 2020 (64-Bit) -->
<svg xmlns="http://www.w3.org/2000/svg" xml:space="preserve" width="30.143mm" height="25.3744mm" version="1.1" style="shape-rendering:geometricPrecision; text-rendering:geometricPrecision; image-rendering:optimizeQuality; fill-rule:evenodd; clip-rule:evenodd"
viewBox="0 0 1885.83 1587.49"
 xmlns:xlink="http://www.w3.org/1999/xlink"
 xmlns:xodm="http://www.corel.com/coreldraw/odm/2003">
 <defs>
  <style type="text/css">
   <![CDATA[
    .str1 {stroke:black;stroke-width:10.59;stroke-miterlimit:22.9256}
    .str0 {stroke:black;stroke-width:7.42;stroke-miterlimit:22.9256}
    .fil0 {fill:black}
   ]]>
  </style>
 </defs>
 <g id="Capa_x0020_1">
  <metadata id="CorelCorpID_0Corel-Layer"/>
  <g id="_1134975205328">
   <path class="fil0 str0" d="M156.22 1279.3c51.53,9.68 496.82,3.6 587.76,3.6 29.77,0 128.72,3.68 150.59,-2.14 18.84,-5.03 66.18,-48.22 72.78,-72.38 -144.26,-10.32 -530.33,-1.87 -714.7,-1.23 -76.1,0.27 -156.63,-6.94 -162.17,-73.64l948.5 -1.76c29.71,-2.92 66.65,-47.95 78.78,-74.16 -212.73,-7.63 -496.02,-0.89 -721.49,-0.89 -252.06,0 -205.52,51.01 -205.52,-517.62 0,-80.62 0,-161.26 0,-241.88 0,-73.17 -15.92,-179.51 38.04,-205.47 25.44,-12.23 1386,-22.38 1428.41,2.7 49.85,29.49 33.07,142.07 33.07,210.32 0,77.86 -3.68,165.27 1.24,241.88l73.32 36.2c1.78,-137.11 4.8,-279.82 1.05,-414.46 -4.35,-156.8 -106.99,-161.48 -250.91,-161.46 -393.76,0.08 -843.55,-7.16 -1232.34,-0.13 -157.5,2.85 -167.53,95.76 -167.49,245.06l-0.15 718.4c0.82,33.26 13.96,61.31 14.02,85.69l-110.82 0c-14.2,4.19 -15.58,18.88 -13.99,28.19 16.05,94.01 32.16,172.65 152,195.17z"/>
   <path class="fil0 str1" d="M1343.1 1053.08c-3.91,-48.93 -31.77,-74.41 -26.88,-143.55 8.72,-123.18 115.89,-233.95 250.24,-225.22 -14.16,29 -99.32,103.62 -126.53,135.43 -24.71,28.89 -7.95,51.11 3.7,92.29 36.46,128.79 7.9,94.61 134.74,130.93 37.91,10.86 60.44,27.17 91.05,-1.3 32.74,-30.42 99.04,-105.71 131.36,-123.4 7.36,100.46 -56.11,177.73 -109.99,212.59 -119.86,77.56 -212,14.46 -258.97,11.41 -71.02,64.8 -136.36,135.93 -205.16,204.49 -76.61,76.34 -168.97,203.08 -230.25,141.69 -50.52,-50.59 17.21,-104.94 40.1,-127.68l306.57 -307.68zm-335.63 529.12l67.31 0c119.07,-88.55 86.24,-63.39 193.66,-171.02 60.24,-60.35 123.28,-130.01 186.07,-184.52 61.62,4.85 76.67,27.75 155.69,13.98 246.8,-43.03 324.88,-310.33 233.3,-476.82 -41.98,18.01 -162.61,168.25 -215.13,208.7 -32.1,0.18 -67.92,-10.12 -92.14,-24.02 -13.16,-23.59 -23.81,-60.39 -23.57,-91.95 59.74,-73.94 141.53,-138.24 196.53,-211.65 -66.7,-57.93 -247.09,-54.97 -357.86,40.25 -171.77,147.66 -87.2,326.99 -92.81,345.25 -29.8,56.16 -350.55,301.23 -355.02,408.46 -3.94,94.65 48.15,104.66 103.97,143.34z"/>
  </g>
 </g>
</svg>
