<?xml version="1.0" encoding="UTF-8"?>
<!DOCTYPE svg PUBLIC "-//W3C//DTD SVG 1.1//EN" "http://www.w3.org/Graphics/SVG/1.1/DTD/svg11.dtd">
<!-- Creator: CorelDRAW 2020 (64-Bit) -->
<svg xmlns="http://www.w3.org/2000/svg" xml:space="preserve" width="24.4317mm" height="25.2876mm" version="1.1" style="shape-rendering:geometricPrecision; text-rendering:geometricPrecision; image-rendering:optimizeQuality; fill-rule:evenodd; clip-rule:evenodd"
viewBox="0 0 753.26 779.65"
 xmlns:xlink="http://www.w3.org/1999/xlink"
 xmlns:xodm="http://www.corel.com/coreldraw/odm/2003">
 <defs>
  <style type="text/css">
   <![CDATA[
    .str0 {stroke:black;stroke-width:10.44;stroke-linejoin:round;stroke-miterlimit:22.9256}
    .fil0 {fill:black;fill-rule:nonzero}
   ]]>
  </style>
 </defs>
 <g id="Capa_x0020_1">
  <metadata id="CorelCorpID_0Corel-Layer"/>
  <g id="_1134844610192">
   <path class="fil0 str0" d="M298.44 5.44c-84.96,5.72 -132.93,13.83 -181.19,30.53 -29.93,10.37 -44.36,17.14 -63.76,29.92 -23.01,15.19 -37.44,31.13 -44.96,49.77l-3.31 8.12 0 252.77 0.15 252.77 4.36 10.22c10.83,25.41 35.19,46.01 75.48,63.61 40.9,17.89 95.33,31.12 156.84,38.19 33.53,3.91 37.14,3.91 42.1,-0.45 5.57,-4.66 5.57,-13.38 0.3,-18.64 -3.31,-3.46 -5.86,-4.06 -24.51,-5.86 -102.85,-10.08 -182.1,-36.39 -214.58,-71.13 -13.38,-14.29 -13.08,-12.33 -13.08,-78.8l0 -58.34 7.22 5.86c48.57,40.6 150.67,66.91 273.37,70.37l34.89 1.05 3.91 -3.91c5.41,-5.41 5.41,-14.14 0,-19.25 -3.76,-3.46 -4.81,-3.61 -35.64,-4.66 -75.18,-2.4 -136.23,-12.18 -191.72,-30.68 -45.41,-15.04 -77.14,-35.03 -87.97,-55.19 -3.31,-6.16 -3.31,-7.52 -3.76,-65.41 -0.45,-55.34 0,-63 3.46,-57.44 0.6,0.9 4.51,4.21 8.87,7.37 36.54,26.92 99.69,48.27 174.58,58.8 73.68,10.22 174.43,10.22 247.36,-0.15 78.04,-11.13 140.75,-32.78 177.14,-61.05l8.57 -6.62 0.75 27.06c0.75,26.02 0.9,27.07 4.36,30.83 5.11,5.41 13.38,5.41 18.8,0l3.91 -4.06 0 -138.49c0,-136.23 0,-138.64 -3.16,-146.61 -18.5,-48.72 -96.84,-87.21 -209.61,-103.15 -32.93,-4.66 -67.06,-6.92 -113.53,-7.37 -26.02,-0.3 -51.13,-0.3 -55.64,0l0 0zm125.56 29.93c103.61,10.22 182.85,36.09 216.08,70.37 9.02,9.32 12.33,16.69 12.33,27.37 0,10.53 -2.4,15.94 -11.58,26.02 -33.23,36.09 -122.55,63.91 -232.62,72.63 -28.57,2.26 -104.96,2.26 -131.58,0 -89.17,-7.52 -160.89,-25.71 -205.86,-52.33 -16.69,-9.92 -32.78,-26.02 -36.24,-36.39 -10.37,-31.28 29.02,-62.7 107.36,-85.86 43.01,-12.78 84.96,-19.4 157.29,-24.66 18.05,-1.35 102.25,0.6 124.81,2.86l-0 0zm-374.42 161.95c47.82,33.83 142.7,58.34 240.59,62.1 12.48,0.45 28.12,1.2 35.03,1.5 16.99,1.05 87.67,-1.8 112.78,-4.51 96.24,-10.08 164.95,-32.33 211.27,-68.42l4.06 -3.31 0 57.14c0,39.25 -0.6,58.64 -1.81,62.1 -10.07,29.92 -65.11,58.64 -146.31,76.38 -72.93,15.94 -179.54,20 -263.9,9.78 -76.39,-9.17 -142.85,-29.47 -179.54,-54.74 -13.68,-9.47 -21.05,-17.29 -25.86,-27.67 -3.61,-7.67 -3.61,-7.67 -3.61,-65.41l0 -57.59 4.96 3.61c2.56,2.1 8.27,6.16 12.33,9.02l0 0z"/>
   <path class="fil0 str0" d="M553.17 424.07c-2.56,0.9 -5.57,2.4 -6.47,3.61 -0.9,1.05 -3.46,10.38 -5.71,20.45 -3.61,16.54 -4.66,19.1 -9.32,24.06 -6.17,6.62 -15.49,9.92 -23.16,8.42 -3.01,-0.6 -12.03,-5.41 -20.15,-10.68 -21.2,-13.98 -20.9,-13.98 -42.1,7.22 -20.9,20.9 -21.2,22.11 -9.32,37.74 12.78,16.84 14.59,24.96 8.57,36.99 -4.21,8.42 -10.83,12.93 -21.96,15.04 -26.92,5.11 -26.62,4.66 -26.62,35.64 0,22.55 0,23.01 3.76,26.76 3.01,2.85 6.76,4.36 16.54,6.02 17.59,3.16 21.8,4.66 26.76,10.53 5.71,6.47 8.42,14.44 7.07,21.5 -0.6,3.01 -4.66,11.28 -9.17,18.19 -11.73,18.34 -11.58,19.25 6.32,37.74 15.04,15.49 22.41,20.45 28.12,18.64 1.8,-0.45 7.67,-4.21 13.08,-8.12 13.38,-9.77 15.19,-10.53 24.36,-10.53 6.31,0 9.62,0.9 14.44,4.06 7.52,4.96 10.08,9.92 13.38,26.31 1.95,9.62 3.46,13.38 6.62,16.54l4.06 4.21 22.41 0c19.55,0 22.86,-0.3 27.22,-3.01 2.56,-1.66 4.81,-3.16 4.81,-3.31 0,-0.3 1.05,-6.17 2.25,-13.23 1.66,-9.47 3.31,-13.99 6.47,-18.05 10.38,-12.93 24.06,-13.83 40.6,-2.71 12.48,8.57 15.49,9.47 20.9,6.62 7.52,-3.91 33.38,-31.28 34.28,-36.24 0.75,-3.76 -0.6,-6.92 -7.67,-18.05 -9.92,-15.49 -11.43,-22.56 -7.37,-33.08 2.56,-6.76 8.87,-12.93 15.19,-14.89 1.8,-0.6 9.17,-1.95 16.54,-3.16 11.43,-1.8 13.84,-2.71 16.69,-6.32 3.31,-3.91 3.46,-5.56 3.46,-27.21l0 -23.16 -4.06 -4.06c-3.31,-3.16 -7.07,-4.66 -16.69,-6.62 -16.39,-3.31 -21.35,-5.86 -26.31,-13.38 -3.16,-4.81 -4.06,-8.12 -4.06,-14.44 0,-9.17 0.75,-10.98 10.53,-24.36 3.91,-5.41 7.67,-11.28 8.12,-13.08 1.8,-5.71 -3.16,-13.08 -18.64,-28.12 -18.5,-17.89 -19.4,-18.04 -37.74,-6.31 -6.92,4.51 -15.19,8.57 -18.19,9.17 -7.07,1.35 -15.04,-1.35 -21.5,-7.07 -5.86,-4.96 -7.37,-9.17 -10.53,-26.76 -1.65,-9.77 -3.16,-13.53 -6.01,-16.54 -3.61,-3.61 -4.51,-3.76 -24.51,-4.06 -11.28,-0.15 -22.71,0.3 -25.26,1.05l0 0zm30.22 31.13c2.71,15.79 10.08,29.92 19.25,36.99 19.25,14.59 42.7,16.39 62.25,4.66 4.51,-2.85 8.72,-5.11 9.17,-5.11 0.45,0 3.16,2.11 5.86,4.81l4.96 4.81 -3.61 4.51c-9.32,12.33 -13.38,27.21 -11.28,42.25 3.01,22.86 20.9,40.6 45.41,45.11 5.41,1.05 5.57,1.2 5.57,8.27l0 7.22 -10.83 2.4c-12.78,2.86 -21.2,7.52 -28.72,15.79 -16.84,18.64 -19.25,43.91 -6.17,65.71l5.26 8.57 -4.66 4.81 -4.66 4.81 -10.68 -5.41c-9.92,-5.11 -11.58,-5.41 -24.36,-5.41 -11.58,0 -14.89,0.6 -22.11,3.91 -15.49,7.37 -25.86,19.85 -29.92,36.39l-1.8 7.07 -7.22 0c-7.07,0 -7.22,-0.15 -8.27,-5.56 -3.91,-21.2 -16.69,-36.69 -35.94,-43.46 -3.31,-1.35 -11.43,-2.26 -17.74,-2.26 -12.48,-0.15 -23.46,3.61 -33.68,11.43l-4.66 3.61 -4.81 -4.96c-2.56,-2.56 -4.66,-5.26 -4.66,-5.71 0,-0.45 2.25,-4.66 5.11,-9.32 19.55,-32.48 0.45,-73.53 -37.44,-80.45 -4.81,-0.9 -9.02,-1.65 -9.32,-1.65 -0.3,0 -0.45,-3.31 -0.45,-7.37l0 -7.37 6.47 -0.9c18.95,-2.85 37.59,-18.64 43.15,-36.54 5.41,-17.29 3.46,-30.83 -6.92,-47.37l-5.41 -9.02 4.81 -4.96 4.81 -5.11 10.08 6.62c18.5,12.33 36.69,14.13 55.03,5.41 16.69,-7.82 27.22,-22.4 30.98,-42.7l1.8 -10.07 7.22 0c7.22,0 7.22,0 8.12,5.56l0 0z"/>
   <path class="fil0 str0" d="M562.64 532.34c-5.11,0.75 -13.23,3.31 -19.7,6.47 -36.24,18.05 -48.72,63.61 -26.47,96.99 23.16,34.73 71.73,40.3 101.95,11.73 31.58,-29.77 27.37,-80.3 -8.87,-104.51 -13.53,-9.02 -29.77,-12.78 -46.91,-10.68l0 0zm26.76 30.08c13.08,5.71 23.31,21.2 23.31,35.49 0,29.62 -30.22,49.92 -56.39,37.59 -15.19,-7.07 -23.61,-20 -23.61,-36.24 0,-29.93 29.17,-49.02 56.69,-36.84z"/>
  </g>
 </g>
</svg>
